<svg width="700" height="416" viewBox="0 0 700 416" fill="none" xmlns="http://www.w3.org/2000/svg">
<path d="M149.559 98.6118L118.099 3.43085C117.422 1.38301 115.508 0 113.351 0H57.4824H5.20042C1.71341 0 -0.702728 3.47943 0.515453 6.74673L89.5568 245.566C91.1899 249.946 97.4055 249.889 98.958 245.479L149.527 101.841C149.895 100.798 149.906 99.6621 149.559 98.6118Z" fill="black"/>
<path d="M154.56 409.412L234.131 171.866C235.662 167.297 242.136 167.325 243.627 171.908L292.4 321.797L262.658 412.557C261.985 414.611 260.068 416 257.906 416H159.301C155.885 416 153.475 412.651 154.56 409.412Z" fill="black"/>
<path d="M397.25 0H299.399C295.969 0 293.557 3.3758 294.669 6.62103L376.715 246.023C378.237 250.465 384.49 250.548 386.13 246.148L437.093 109.443C437.497 108.36 437.513 107.171 437.139 106.077L401.981 3.38054C401.289 1.35848 399.388 0 397.25 0Z" fill="black"/>
<path d="M694.812 0H597.801C595.714 0 593.846 1.2971 593.116 3.25322L441.739 409.253C440.521 412.521 442.937 416 446.424 416H544.169C546.26 416 548.13 414.699 548.857 412.739L699.499 6.73933C700.711 3.47326 698.295 0 694.812 0Z" fill="black"/>
</svg>
